<?xml version="1.0" encoding="UTF-8"?>
<svg width="32px" height="31px" viewBox="0 0 32 31" version="1.1" xmlns="http://www.w3.org/2000/svg" xmlns:xlink="http://www.w3.org/1999/xlink">
    <!-- Generator: Sketch 51.3 (57544) - http://www.bohemiancoding.com/sketch -->
    <title>ic-technology-adobe-illustrator</title>
    <desc>Created with Sketch.</desc>
    <defs></defs>
    <g id="Page-1" stroke="none" stroke-width="1" fill="none" fill-rule="evenodd">
        <g id="ic-technology-adobe-illustrator" fill="#252B33" fill-rule="nonzero">
            <path d="M32,6.21724894e-14 L32,31 L0,31 L0,6.21724894e-14 L32,6.21724894e-14 Z M23.8690793,10.4588615 L21.5854595,10.4588615 C21.4545095,10.4588615 21.410879,10.5168559 21.410879,10.6327281 L21.4254225,10.6327281 L21.4254225,22.0477098 C21.4254225,22.163582 21.4691116,22.236002 21.6145464,22.236002 L23.8690793,22.236002 C24.0145142,22.236002 24.0436011,22.1780076 24.0436011,22.0621939 L24.0436011,10.6327281 C24.0436011,10.5023135 23.9853686,10.4588615 23.8690793,10.4588615 Z M14.4581563,6.27245512 L11.4036146,6.27245512 C11.3308972,6.27245512 11.2872668,6.31590717 11.2872668,6.41729529 C11.2581798,7.12707049 11.2145493,7.35887316 11.1418319,7.61958545 L7.01095526,22.0186834 C6.98180965,22.1924916 7.01095526,22.2359436 7.15639008,22.2359436 L9.29457515,22.2359436 C9.44000997,22.2359436 9.48364042,22.2069756 9.51272738,22.0911619 L10.6618384,17.745373 L15.3163391,17.745373 L16.5090805,22.1056459 C16.5381088,22.2069756 16.6108849,22.2359436 16.7272327,22.2359436 L19.1418026,22.2359436 C19.2581505,22.2359436 19.2872374,22.1634652 19.2581505,22.0476514 L14.6327368,6.41729529 C14.6035912,6.30142316 14.5599607,6.27245512 14.4581563,6.27245512 Z M12.9745452,8.59018975 C13.3382496,10.2850533 14.2982367,13.7906525 14.7054542,15.3986119 L11.2582384,15.3986119 C11.8691233,13.1532389 12.6399865,10.2850533 12.9454583,8.59018975 L12.9745452,8.59018975 Z M22.7345705,5.86684426 C21.9054161,5.86684426 21.2509007,6.41729529 21.2509007,7.34438914 C21.2509007,8.30045102 21.8617856,8.82199242 22.7054835,8.82193402 C23.5927532,8.82193402 24.2181816,8.30045102 24.2181816,7.34438914 C24.2181816,6.46074734 23.6218401,5.86684426 22.7345705,5.86684426 Z" id="Combined-Shape-Copy-11"></path>
        </g>
    </g>
</svg>