<?xml version="1.0" encoding="UTF-8"?>
<svg width="32px" height="32px" viewBox="0 0 32 32" version="1.1" xmlns="http://www.w3.org/2000/svg" xmlns:xlink="http://www.w3.org/1999/xlink">
    <!-- Generator: Sketch 51.3 (57544) - http://www.bohemiancoding.com/sketch -->
    <title>ic-technology-invision</title>
    <desc>Created with Sketch.</desc>
    <defs></defs>
    <g id="Page-1" stroke="none" stroke-width="1" fill="none" fill-rule="evenodd">
        <g id="ic-technology-invision" fill="#252B33" fill-rule="nonzero">
            <path d="M29.099125,0 C30.70125,0 32,1.29875 32,2.900875 L32,29.099125 C32,30.70125 30.70125,32 29.099125,32 L2.900875,32 C1.29875,32 0,30.70125 0,29.099125 L0,2.900875 C0,1.29875 1.29875,0 2.900875,0 L29.099125,0 Z M22.10525,11.598375 C20.40925,11.598375 18.68425,13.12825 17.822,14.738375 L18.45425,11.848375 L13.53875,11.848375 L12.84875,14.393875 L15.148625,14.393875 L13.732375,20.063875 C12.62025,22.536125 10.577375,22.57625 10.321,22.518875 C9.9,22.423875 9.63075,22.264 9.63075,21.717 C9.63075,21.401375 9.68825,20.948 9.832,20.401375 L11.98825,11.848375 L6.52625,11.848375 L5.83625,14.393875 L8.107125,14.393875 L6.64125,20.383125 C6.52625,20.871875 6.468625,21.399625 6.468625,21.830125 C6.468625,23.5265 7.3885,24.652625 9.343375,24.652625 C10.964625,24.652625 12.279,23.689875 13.225375,22.13525 L12.6475,24.454375 L15.866875,24.454375 L17.706875,17.0745 C18.166875,15.206 19.058,14.236125 20.40925,14.236125 C21.472875,14.236125 22.134,14.897625 22.134,15.989625 C22.134,16.306 22.10525,16.650625 21.99025,17.0245 L21.0415,20.416625 C20.89775,20.905375 20.8405,21.394375 20.8405,21.854 C20.8405,23.464375 21.788875,24.64225 23.7725,24.64225 C25.468625,24.64225 26.819625,23.550375 27.567125,20.93425 L26.302375,20.446 C25.669875,22.198625 25.123625,22.5155 24.692375,22.5155 C24.261125,22.5155 24.031125,22.22825 24.031125,21.653625 C24.031125,21.394875 24.088875,21.10775 24.174875,20.762 L25.095,17.45725 C25.324875,16.68125 25.41125,15.993125 25.41125,15.360875 C25.41125,12.888625 23.91625,11.598375 22.10525,11.598375 Z M10.694375,6.216 C9.630625,6.216 8.73975,7.049625 8.73975,8.141625 C8.73975,9.23425 9.630625,10.068125 10.694375,10.068125 C11.758125,10.068125 12.64925,9.234375 12.64925,8.141625 C12.64925,7.049625 11.758125,6.216 10.694375,6.216 Z" id="Combined-Shape-Copy-12"></path>
        </g>
    </g>
</svg>