<?xml version="1.0" encoding="UTF-8"?>
<svg width="40px" height="24px" viewBox="0 0 40 24" version="1.1" xmlns="http://www.w3.org/2000/svg" xmlns:xlink="http://www.w3.org/1999/xlink">
    <!-- Generator: Sketch 51.3 (57544) - http://www.bohemiancoding.com/sketch -->
    <title>ic-technology-node-js</title>
    <desc>Created with Sketch.</desc>
    <defs></defs>
    <g id="Page-1" stroke="none" stroke-width="1" fill="none" fill-rule="evenodd">
        <g id="ic-technology-node-js" fill="#252B33" fill-rule="nonzero">
            <path d="M20.1627594,14.4496489 L23.7702985,16.4961637 C24.0053823,16.6290055 24.1501094,16.8771352 24.1501094,17.1428955 L24.1501094,21.2270331 C24.1501094,21.4927933 24.0053823,21.7409231 23.7702985,21.8737648 L20.1627594,23.9202796 C20.0451783,23.9734776 19.9096042,24 19.7830266,24 L19.7829484,24 C19.6473743,24 19.5207967,23.9645857 19.4032157,23.9025725 L18.2007287,23.2027193 C18.0198589,23.1052151 18.1102938,23.0698009 18.1645861,23.0520937 C18.4086664,22.9723733 18.4538839,22.9545896 18.707039,22.8129325 C18.7341851,22.7951487 18.770406,22.8040406 18.7974739,22.8217478 L19.7197378,23.3621601 C19.7558805,23.3798672 19.801098,23.3798672 19.8281659,23.3621601 L23.4357832,21.3156454 C23.4719259,21.2979382 23.4900754,21.2624473 23.4900754,21.2182178 L23.4900754,17.1340802 C23.4900754,17.0896974 23.4719259,17.0543598 23.4357832,17.036576 L19.8281659,14.9989532 C19.7920232,14.9811694 19.7468057,14.9811694 19.7197378,14.9989532 L16.1121205,17.036576 C16.0759778,17.0542832 16.0578283,17.0985893 16.0578283,17.1340036 L16.0578283,21.2181412 C16.0578283,21.2536321 16.0759778,21.2978616 16.1121205,21.3156454 L17.0976732,21.8737648 C17.6311296,22.1395251 17.9656449,21.8294587 17.9656449,21.5193923 L17.9656449,17.4883761 C17.9656449,17.4352547 18.0108624,17.3820567 18.0741511,17.3820567 L18.535244,17.3820567 C18.5895362,17.3820567 18.6437502,17.4263628 18.6437502,17.4883761 L18.6437502,21.5193923 C18.6437502,22.2192455 18.2549427,22.626816 17.5768374,22.626816 C17.3688997,22.626816 17.2061795,22.626816 16.7450084,22.4052853 L15.7956766,21.8737648 C15.5605928,21.7409231 15.4159438,21.4927933 15.4159438,21.2270331 L15.4159438,17.1428955 C15.4159438,16.8771352 15.5605928,16.6290055 15.7956766,16.4961637 L19.4032157,14.4496489 C19.6293029,14.3256224 19.9367503,14.3256224 20.1627594,14.4496489 Z M20.7595046,17.2580301 C21.9167741,17.2580301 22.4864514,17.6478936 22.558815,18.4982956 C22.558815,18.5249713 22.5497402,18.5514937 22.5316688,18.5780927 C22.5135193,18.5957998 22.4864514,18.613507 22.4593053,18.613507 L21.9891376,18.613507 C21.9439202,18.613507 21.8987027,18.5780927 21.8897062,18.5337866 C21.7811999,18.0465722 21.5008987,17.8870548 20.7595046,17.8870548 C19.9276755,17.8870548 19.8281659,18.1705988 19.8281659,18.383161 C19.8281659,18.640106 19.9457469,18.7198264 21.0668737,18.8615601 C22.179004,19.0033704 22.7034639,19.2071173 22.7034639,19.9689838 C22.6943891,20.748634 22.0434299,21.1916188 20.8950787,21.1916188 C19.312859,21.1916188 18.9873403,20.4828738 18.9873403,19.8804481 C18.9873403,19.8272501 19.0325577,19.7741287 19.0958465,19.7741287 L19.5660142,19.7741287 C19.6202282,19.7741287 19.6654456,19.809543 19.6654456,19.862741 C19.7378092,20.3322482 19.9457469,20.5625942 20.9041535,20.5625942 C21.6636189,20.5625942 21.9892159,20.3942615 21.9892159,19.9955828 C21.9892159,19.7652368 21.8987027,19.5969808 20.7142871,19.4817695 C19.7287344,19.3842653 19.1139179,19.1717031 19.1139179,18.4009448 C19.1139179,17.6833078 19.7288126,17.2580301 20.7595046,17.2580301 Z M26.9593439,0.00665454572 L27.0163327,0.0266181829 L29.3038038,1.27577559 C29.4243445,1.34227313 29.5072367,1.45790392 29.531519,1.59201511 L29.5388876,1.67445426 L29.5388876,12.4739627 C29.5388876,12.6068939 29.4760856,12.7336502 29.3714427,12.8183443 L29.3038038,12.8638261 L25.4701774,15.0343674 C25.3558175,15.0981693 25.2207719,15.1109297 25.0981377,15.0726486 L25.0090063,15.0343674 L21.17538,12.8638261 C21.0548392,12.7973925 20.9719471,12.6816659 20.9476647,12.5526667 L20.9402961,12.4739627 L20.9402961,8.14177201 C20.9402961,8.00890467 21.0030982,7.88215902 21.107741,7.79746674 L21.17538,7.75198522 L25.0090063,5.58144393 C25.1233662,5.51764205 25.2584119,5.50488167 25.3810461,5.5431628 L25.4701774,5.58144393 L26.428584,6.12185628 C26.482798,6.14837864 26.5370902,6.14837864 26.5913042,6.12185628 C26.6274991,6.09819567 26.6515942,6.0666993 26.6636359,6.032591 L26.6726644,5.9801226 L26.6726644,0.221473246 C26.6726644,0.141752843 26.7178818,0.0709243303 26.7901672,0.0266181829 C26.8376924,-6.46444704e-14 26.9004434,-0.00665454572 26.9593439,0.00665454572 Z M14.5388974,5.54602967 C14.6818272,5.46630641 14.8570604,5.46630641 14.9999902,5.54602967 L18.8065487,7.69878719 C18.9421228,7.77850759 19.032636,7.92913316 19.032636,8.08857397 L19.032636,12.4030575 C19.032636,12.5624984 18.9511976,12.7131239 18.8065487,12.7928443 L14.9999902,14.9456785 C14.8570604,15.0254018 14.6818272,15.0254018 14.5388974,14.9456785 L10.7324171,12.7928443 C10.5967648,12.7131239 10.5063299,12.5624984 10.5063299,12.4030575 L10.5063299,8.08849731 C10.5063299,7.92905651 10.58769,7.77843094 10.7324171,7.69871053 L14.5388974,5.54602967 Z M35.5063396,5.52832254 C35.6492694,5.44859929 35.8245027,5.44859929 35.9674325,5.52832254 L39.7739127,7.68997195 C39.9095651,7.76969235 40,7.92031792 40,8.07975873 L40,9.13398442 C40,9.29350188 39.9186399,9.44412745 39.7739127,9.52384785 L37.4954382,10.8262033 C37.4230746,10.8705094 37.3327179,10.8705094 37.2603543,10.8262033 C37.188069,10.790789 37.1428516,10.7110686 37.1428516,10.6313482 L37.1428516,9.56823065 C37.1428516,9.48843359 37.0976341,9.41760508 37.0252705,9.37329893 L35.8227836,8.69996814 C35.750943,8.65567009 35.6595404,8.65567009 35.5876998,8.69996814 L34.3851346,9.37329893 C34.3128492,9.40878985 34.2676318,9.48851025 34.2676318,9.56823065 L34.2676318,10.9237075 C34.2676318,11.0034279 34.3128492,11.074333 34.3851346,11.1185625 L38.2368323,13.2891038 C38.3091958,13.3245948 38.3544133,13.4043152 38.3544133,13.4840356 C38.3544133,13.563756 38.3091958,13.6434764 38.2368323,13.6789673 L35.9312898,14.9368633 C35.7956375,15.0165837 35.6239207,15.0165837 35.4791935,14.9368633 L31.6727133,12.8106281 C31.5279861,12.7309077 31.4376294,12.5802821 31.4376294,12.4208413 L31.4376294,8.08865062 C31.4376294,7.92913316 31.5279861,7.77850759 31.6727133,7.69878719 L35.5063396,5.52832254 Z M4.31286879,5.41303457 C4.38515412,5.42192646 4.45743946,5.43963359 4.52080648,5.4751245 L8.35443286,7.63677391 C8.49908176,7.71649431 8.58951667,7.86719654 8.58951667,8.02663735 L8.59859145,13.8383314 C8.59859145,13.9180518 8.553374,13.9977722 8.48101043,14.0332631 C8.40864686,14.0775693 8.31829019,14.0775693 8.24592662,14.0332631 L5.96745204,12.7575067 C5.82280313,12.6777863 5.73236822,12.5271608 5.73236822,12.3677199 L5.73236822,9.6478744 C5.73236822,9.48835694 5.64201155,9.33780802 5.49728441,9.25808762 L4.52988127,8.70878338 C4.46651425,8.66447723 4.38515412,8.64669345 4.303794,8.64669345 C4.22243388,8.64669345 4.14107376,8.66447723 4.06871019,8.70878338 L3.10130704,9.25808762 C2.9565799,9.33780802 2.86622323,9.48843359 2.86622323,9.6478744 L2.86622323,12.3677199 C2.86622323,12.5271608 2.77578832,12.6777863 2.63113941,12.7575067 L0.352664837,14.0332631 C0.289297819,14.0775693 0.198941145,14.0775693 0.126577575,14.0332631 C0.0542922354,13.9977722 0.00907478286,13.9180518 0.00907478286,13.8383314 L-2.13162821e-14,8.02663735 C-2.13162821e-14,7.86711988 0.0903566742,7.71649431 0.235083815,7.63677391 L4.06871019,5.4751245 C4.13199898,5.43963359 4.20436255,5.41303457 4.27664788,5.41303457 L4.31286879,5.41303457 Z M25.2195306,8.70577469 L25.1808014,8.71759861 L23.8698082,9.46183458 C23.8456609,9.47363933 23.8295801,9.49331391 23.8215426,9.51824641 L23.8155159,9.55926211 L23.8155159,11.0476574 C23.8155159,11.0712669 23.8235476,11.0988283 23.8396342,11.1198259 L23.8698082,11.1450849 L25.1808014,11.8892442 C25.2055372,11.9010681 25.2330596,11.9050094 25.2596531,11.9010681 L25.2983824,11.8892442 L26.6093756,11.1450849 C26.6335228,11.1332802 26.6496036,11.1136056 26.6576411,11.0886731 L26.6636678,11.0476574 L26.6636678,9.55926211 C26.6636678,9.5356526 26.6556361,9.50805708 26.6395495,9.4870595 L26.6093756,9.46183458 L25.2983824,8.71759861 C25.2736465,8.70577469 25.2461241,8.70183339 25.2195306,8.70577469 Z M35.7684913,9.3201009 L36.5008889,9.7364867 C36.528035,9.75411717 36.5461064,9.78071619 36.5461064,9.8162071 L36.5461064,10.6489787 C36.5461064,10.684393 36.528035,10.710992 36.5008889,10.7286991 L35.7684913,11.1450849 C35.7410777,11.1627744 35.7055483,11.1627744 35.6781347,11.1450849 L34.9457371,10.7286991 C34.918591,10.710992 34.9005196,10.684393 34.9005196,10.6489787 L34.9005196,9.8162071 C34.9005196,9.78071619 34.918591,9.75411717 34.9457371,9.7364867 L35.6781347,9.3201009 C35.7055483,9.30241144 35.7410777,9.30241144 35.7684913,9.3201009 Z" id="Combined-Shape-Copy-8"></path>
        </g>
    </g>
</svg>