<?xml version="1.0" encoding="UTF-8"?>
<svg width="32px" height="32px" viewBox="0 0 32 32" version="1.1" xmlns="http://www.w3.org/2000/svg" xmlns:xlink="http://www.w3.org/1999/xlink">
    <!-- Generator: Sketch 51.3 (57544) - http://www.bohemiancoding.com/sketch -->
    <title>ic-technology-wordpress</title>
    <desc>Created with Sketch.</desc>
    <defs></defs>
    <g id="Page-1" stroke="none" stroke-width="1" fill="none" fill-rule="evenodd">
        <g id="ic-technology-wordpress" fill="#252B33" fill-rule="nonzero">
            <path d="M16,0 C7.17733333,0 0,7.17733333 0,16 C0,24.8226667 7.17733333,32 16,32 C24.8226667,32 32,24.8226667 32,16 C32,7.17733333 24.8226667,0 16,0 Z M16,0.750666667 C24.4173333,0.750666667 31.2506667,7.584 31.2506667,16 C31.2506667,24.4173333 24.4173333,31.2506667 16,31.2506667 C7.58266667,31.2506667 0.749333333,24.4173333 0.749333333,16 C0.750666667,7.58266667 7.584,0.749333333 16,0.749333333 L16,0.750666667 Z M16,2.29195449 C11.3840222,2.28010836 7.07407849,4.59957422 4.54133333,8.45866667 C4.864,8.46933333 5.156,8.45866667 5.41733333,8.45866667 C6.85466667,8.45866667 9.084,8.292 9.084,8.292 C9.82266667,8.25066667 9.90666667,9.328 9.16666667,9.41733333 C9.16666667,9.41733333 8.412,9.54133333 7.58266667,9.58266667 L12.5826667,24.4173333 L15.5826667,15.4173333 L13.4586667,9.58266667 C12.7186667,9.54266667 12,9.41733333 12,9.41733333 C11.26,9.37466667 11.344,8.24933333 12.084,8.292 C12.084,8.292 14.36,8.45866667 15.708,8.45866667 C17.1453333,8.45866667 19.3746667,8.292 19.3746667,8.292 C20.1146667,8.25066667 20.1973333,9.328 19.4586667,9.41733333 C19.4586667,9.41733333 18.6986667,9.54133333 17.8746667,9.58266667 L22.8333333,24.3333333 L24.208,19.7493333 C24.9013333,17.9693333 25.2506667,16.4693333 25.2506667,15.292 C25.2506667,13.5933333 24.6506667,12.452 24.1253333,11.5413333 C23.432,10.412 22.792,9.42133333 22.792,8.292 C22.792,7.03066667 23.7346667,5.87466667 25.0826667,5.87466667 L25.2493333,5.87466667 C22.7268416,3.55933919 19.4239656,2.28046862 16,2.29333333 L16,2.29195449 Z M28.0413333,9.416 C28.104,9.85466667 28.1253333,10.328 28.1253333,10.8333333 C28.1253333,12.224 27.864,13.792 27.0826667,15.7506667 L22.916,27.8746667 C27.1355196,25.4106239 29.7238397,20.8862708 29.709394,16 C29.709394,13.6133333 29.116,11.3693333 28.0426667,9.416 L28.0413333,9.416 Z M3.45866667,10.416 C2.68093129,12.1744212 2.28336599,14.0772824 2.292,16 C2.292,21.432 5.42133333,26.1093333 10,28.3333333 L3.45866667,10.416 Z M16.2493333,17.208 L12.1253333,29.1666667 C13.3546667,29.5266667 14.6506667,29.708 16,29.708 C17.6,29.708 19.1146667,29.4586667 20.5413333,28.9586667 C20.5053333,28.9013333 20.484,28.8173333 20.4586667,28.7493333 L16.2493333,17.208 Z" id="surface1-copy"></path>
        </g>
    </g>
</svg>