<?xml version="1.0" encoding="UTF-8"?>
<svg width="28px" height="32px" viewBox="0 0 28 32" version="1.1" xmlns="http://www.w3.org/2000/svg" xmlns:xlink="http://www.w3.org/1999/xlink">
    <!-- Generator: Sketch 51.3 (57544) - http://www.bohemiancoding.com/sketch -->
    <title>ic-technology-drupal</title>
    <desc>Created with Sketch.</desc>
    <defs></defs>
    <g id="Page-1" stroke="none" stroke-width="1" fill="none" fill-rule="evenodd">
        <g id="ic-technology-drupal" fill="#252B33" fill-rule="nonzero">
            <path d="M20.9689318,5.95016237 C19.3346014,4.93257452 17.7928969,4.5318157 16.2511923,3.51448506 C15.2948312,2.86704608 13.9692534,1.32548793 12.858516,0 C12.6429037,2.12726279 11.9952952,2.99051477 11.2555755,3.60682936 C9.68273834,4.84023022 8.69575925,5.20986463 7.33904893,5.94990515 C6.19795084,6.53560979 0,10.2350407 0,18.1887399 C0,26.1429536 6.69169768,32 14.1231151,32 C21.5555617,32 28,26.6049323 28,18.4354201 C28,10.2659078 21.9559109,6.56647696 20.9689318,5.95016237 Z M21.1472364,29.099 C20.9928601,29.2533359 19.5743993,30.2397994 17.909451,30.393878 C16.2439881,30.5479567 13.9931817,30.6408154 12.6359568,29.4074146 C12.4203446,29.1913443 12.4820951,28.8834443 12.6359568,28.7599756 C12.7903331,28.6367641 12.9138341,28.5439053 13.0988284,28.5439053 C13.2838227,28.5439053 13.2532047,28.5439053 13.3455732,28.6056397 C13.9620492,29.0987428 14.8872777,29.4997589 16.8607213,29.4997589 C18.8346795,29.4997589 20.2220078,28.9446642 20.8387411,28.4824282 C21.1166184,28.266358 21.2398622,28.4518183 21.2704801,28.5747725 C21.3016127,28.6982412 21.3633632,28.8834443 21.1472364,29.099 Z M15.7507558,26.2936883 C16.0898691,25.9852738 16.6453664,25.4924279 17.1694739,25.2763577 C17.6935814,25.0608019 17.9714588,25.0914119 18.4644337,25.0914119 C18.9579233,25.0914119 19.4820308,25.1220218 19.8525339,25.3689592 C20.2225224,25.6153821 20.4383919,26.1704768 20.5616357,26.4786341 C20.6848794,26.7867914 20.5616357,26.9717372 20.3148909,27.0949487 C20.0992787,27.2184174 20.0681461,27.1566831 19.8525339,26.7564387 C19.6364071,26.3554227 19.4514128,25.9546638 18.3720652,25.9546638 C17.2927177,25.9546638 16.9533471,26.3245555 16.4292396,26.7564387 C15.9051321,27.1880647 15.7201378,27.3421433 15.5351436,27.0949487 C15.3501493,26.8485258 15.4113853,26.6021028 15.7507558,26.2936883 Z M23.9226648,26.5403685 C22.8126993,26.4480242 20.5919963,22.9950162 19.1732782,22.9335391 C17.3853434,22.8718048 13.4991776,26.6635799 10.4463864,26.6635799 C8.59644383,26.6635799 8.04146106,26.3865471 7.42447048,25.9852738 C6.4992419,25.338092 6.03688491,24.3513713 6.06776017,22.9950162 C6.09863542,20.5902061 8.34969906,18.3397318 11.1866207,18.3088647 C14.794652,18.2785119 17.2922031,21.8850841 19.1120423,21.8542169 C20.6537468,21.823607 23.6141695,18.8024822 25.0635056,18.8024822 C26.6052102,18.8024822 27.0374638,20.4055175 27.0374638,21.3611138 C27.0374638,22.3167101 26.7289685,24.043214 25.9887342,25.1220218 C25.2484999,26.2010868 24.7861429,26.6021028 23.9226648,26.5403685 Z" id="Shape-Copy-4"></path>
        </g>
    </g>
</svg>