<?xml version="1.0" encoding="UTF-8"?>
<svg width="29px" height="32px" viewBox="0 0 29 32" version="1.1" xmlns="http://www.w3.org/2000/svg" xmlns:xlink="http://www.w3.org/1999/xlink">
    <!-- Generator: Sketch 51.3 (57544) - http://www.bohemiancoding.com/sketch -->
    <title>ic-technology-android</title>
    <desc>Created with Sketch.</desc>
    <defs></defs>
    <g id="Page-1" stroke="none" stroke-width="1" fill="none" fill-rule="evenodd">
        <g id="ic-technology-android" fill="#252B33" fill-rule="nonzero">
            <path d="M23.7052825,9.13574922 C23.7118317,9.21120694 23.7146792,9.28806722 23.7146792,9.36548853 L23.7146792,22.3471621 C23.7146792,23.7431299 22.5929206,24.867983 21.2002258,24.867983 L21.101,24.867 L21.1011341,30.0027547 C21.1011341,31.1058681 20.1933625,32 19.0735971,32 C17.9539742,32 17.0462026,31.1058681 17.0462026,30.0027547 L17.046,24.867 L11.953,24.867 L11.9539398,30.0027547 C11.9539398,31.1058681 11.0461682,32 9.92640287,32 C8.80677991,32 7.8990083,31.1058681 7.8990083,30.0027547 L7.899,24.867 L7.79948942,24.867983 C6.46263911,24.867983 5.37535241,23.8314477 5.29050844,22.5133377 L5.28517846,22.3471621 L5.28517846,9.36548853 C5.28517846,9.28806722 5.29101576,9.21148745 5.2977073,9.13574922 L23.7052825,9.13574922 Z M2.02753694,10.2910378 C3.1471599,10.2910378 4.05493151,11.18531 4.05493151,12.2884233 L4.05493151,20.8566617 C4.05493151,21.959775 3.1471599,22.8540472 2.02753694,22.8540472 C0.907771614,22.8540472 0,21.959775 0,20.8568019 L0,12.2885636 C-0.000142373214,11.1854502 0.907629241,10.2910378 2.02753694,10.2910378 Z M26.9726054,10.2910378 C28.0922284,10.2910378 29,11.18531 29,12.2884233 L29,20.8566617 C29,21.959775 28.0922284,22.8540472 26.9726054,22.8540472 C25.8528401,22.8540472 24.9450685,21.959775 24.9450685,20.8568019 L24.9450685,12.2885636 C24.9450685,11.1854502 25.8528401,10.2910378 26.9726054,10.2910378 Z M23.044815,0.0282222909 C23.1469585,0.0863192272 23.1819544,0.214988397 23.1229805,0.315612924 L21.406329,3.24619817 C22.7771129,4.59826634 23.6155452,6.35689009 23.6427807,8.28299281 L5.35693456,8.28299281 C5.38417005,6.35675458 6.22266883,4.59809352 7.59348934,3.24603879 L5.87715884,0.315607673 C5.81818785,0.21498147 5.85318746,0.0863132947 5.95533266,0.0282192589 C6.05747786,-0.029874777 6.18808834,0.00460435647 6.24705933,0.105230559 L7.91275696,2.94703801 C9.35453957,1.66462306 11.3021237,0.802303869 13.4810349,0.595281549 L15.5186803,0.595281549 C17.6977284,0.802371259 19.6453178,1.66475784 21.0870691,2.9471935 L22.7530861,0.105225307 C22.8120601,0.00460077931 22.9426715,-0.0298746454 23.044815,0.0282222909 Z M10.7244047,3.69745956 C10.1450881,3.69900633 9.67682262,4.15203317 9.67838481,4.70955072 C9.68009721,5.27253826 10.1510678,5.7230405 10.730242,5.72164121 C11.309701,5.72009512 11.7779665,5.26692802 11.7762627,4.70955072 C11.7745496,4.14628267 11.303579,3.69592069 10.7244047,3.69745956 Z M18.554362,3.69745956 C17.9750454,3.69900633 17.5067799,4.15203317 17.5083421,4.70955072 C17.5100545,5.27253826 17.9810251,5.7230405 18.5601993,5.72164121 C19.1396583,5.72009512 19.6079238,5.26692802 19.60622,4.70955072 C19.6045068,4.14628267 19.1335363,3.69592069 18.554362,3.69745956 Z" id="Combined-Shape-Copy-5"></path>
        </g>
    </g>
</svg>