<?xml version="1.0" encoding="UTF-8"?>
<svg width="24px" height="36px" viewBox="0 0 24 36" version="1.1" xmlns="http://www.w3.org/2000/svg" xmlns:xlink="http://www.w3.org/1999/xlink">
    <!-- Generator: Sketch 51.3 (57544) - http://www.bohemiancoding.com/sketch -->
    <title>ic-technology-figma</title>
    <desc>Created with Sketch.</desc>
    <defs></defs>
    <g id="Page-1" stroke="none" stroke-width="1" fill="none" fill-rule="evenodd">
        <g id="ic-technology-figma" fill="#252B33" fill-rule="nonzero">
            <path d="M12,3.55271368e-14 L12,29.9940024 C12,33.3053403 9.312,35.9928029 6,35.9928029 C2.688,35.9928029 -1.77635684e-15,33.3053403 -1.77635684e-15,29.9940024 C-1.77635684e-15,26.6826645 2.688,23.9952019 6,23.9952019 C2.688,23.9952019 -1.77635684e-15,21.3077393 -1.77635684e-15,17.9964014 C-1.77635684e-15,14.6850636 2.688,11.997601 6,11.997601 C2.688,11.997601 -1.77635684e-15,9.31013834 -1.77635684e-15,5.99880048 C-1.77635684e-15,2.68746261 2.688,3.55271368e-14 6,3.55271368e-14 L12,3.55271368e-14 Z M18,11.997601 C21.312,11.997601 24,14.6850636 24,17.9964014 C24,21.3077393 21.312,23.9952019 18,23.9952019 C14.688,23.9952019 12,21.3077393 12,17.9964014 C12,14.6850636 14.688,11.997601 18,11.997601 Z M18,3.55271368e-14 C21.312,3.55271368e-14 24,2.68746261 24,5.99880048 C24,9.31013834 21.312,11.997601 18,11.997601 L12,11.997601 L12,3.55271368e-14 L18,3.55271368e-14 Z" id="Combined-Shape"></path>
        </g>
    </g>
</svg>