<?xml version="1.0" encoding="UTF-8"?>
<svg width="32px" height="31px" viewBox="0 0 32 31" version="1.1" xmlns="http://www.w3.org/2000/svg" xmlns:xlink="http://www.w3.org/1999/xlink">
    <!-- Generator: Sketch 61.2 (89653) - https://sketch.com -->
    <title>ic-technology-joomla</title>
    <desc>Created with Sketch.</desc>
    <g id="Page-1" stroke="none" stroke-width="1" fill="none" fill-rule="evenodd">
        <g id="Brand-Logo" transform="translate(-1117.000000, -4580.000000)" fill="#252B33">
            <g id="ic-technology-joomla" transform="translate(1116.999999, 4580.000000)">
                <path d="M19.0642179,9.58675 L22.0575152,12.5765278 L25.1312449,15.6412222 L25.732326,16.2431389 C27.4390903,17.9418569 28.1321514,20.404047 27.5606503,22.7385 C29.6154256,23.0298506 31.1412274,24.7829476 31.1385997,26.8494444 C31.1385997,29.1403885 29.2743371,30.9980988 26.9734071,31 C24.9934946,30.9993473 23.2873095,29.6118905 22.8912449,27.6804167 C20.4515231,28.4272818 17.7969938,27.7724915 15.9896233,25.978 L15.9896233,25.978 L15.9930828,25.978 L19.0642179,22.9133056 C20.062238,23.8972506 21.6708234,23.8945582 22.6655152,22.9072778 C23.6602501,21.9093994 23.6571566,20.2984726 22.6585963,19.3043889 L22.6585963,19.3043889 L22.0566503,18.7059167 L18.9863801,15.6412222 L15.9896233,12.6505833 L19.0642179,9.59019444 L19.0642179,9.58675 Z M4.99978548,16.2491667 L8.07438007,19.3147222 C7.08905303,20.3114906 7.09329612,21.9122571 8.08389358,22.9038333 C8.56300399,23.3825984 9.21367671,23.6519981 9.89247353,23.6526442 C10.5712704,23.6532903 11.2224592,23.3851299 11.7024882,22.9072778 L11.7024882,22.9072778 L12.3035693,22.3045 L15.3738395,19.2441111 L18.3749206,16.2500278 L21.4451909,19.3147222 L18.4484341,22.3001944 L15.3781639,25.3683333 L14.7727584,25.9668056 C13.061783,27.6742024 10.5759141,28.3614702 8.22573142,27.7768611 C7.78855371,29.6593301 6.10575023,30.9933061 4.16519088,30.9956944 C1.86426092,30.9937932 8.45337624e-07,29.136083 8.45337624e-07,26.8451389 C-0.0012226985,24.9212154 1.32589361,23.2487569 3.20605575,22.8048056 C2.60225709,20.4575576 3.28367391,17.9671475 4.99978548,16.2491667 L4.99978548,16.2491667 Z M4.20583953,2.59348099e-13 C6.2462686,0.00204398744 7.98572718,1.47347433 8.3174071,3.47802778 C10.6391902,2.93237222 13.0792197,3.6220762 14.7667044,5.301 L14.7667044,5.301 L11.6921098,8.36569444 C10.6929027,7.38293681 9.08431409,7.38755239 8.0908125,8.37602778 C7.09242584,9.37119278 7.08933365,10.9825436 8.08389358,11.9815 L8.08389358,11.9815 L8.68929899,12.5799722 L11.7595693,15.6412222 L14.7667044,18.6353056 L14.7623801,18.6353056 L11.6921098,21.6956944 L8.68843412,18.7059167 L5.61470439,15.6412222 L5.01275845,15.0461944 C3.21644465,13.2555283 2.55331915,10.6271088 3.28648818,8.20380556 C1.42875845,7.78444444 0.0432434957,6.13197222 0.0432434957,4.15055556 C0.0423270905,3.0505241 0.480396908,1.99519661 1.26105974,1.21679161 C2.04172256,0.438386614 3.10101265,0.00068485618 4.20583953,2.59348099e-13 Z M26.935353,2.59348099e-13 C29.2366208,0.00142610792 31.1014103,1.85927549 31.1014103,4.15055556 C31.1039774,6.23207424 29.5582542,7.99384065 27.486272,8.27097222 C28.1789748,10.6728429 27.511857,13.2598836 25.7427044,15.0324167 L25.7427044,15.0324167 L22.6689747,11.9711667 C23.6634455,10.9725741 23.6593797,9.3631684 22.6598936,8.37301389 C21.6604075,7.38285938 20.043986,7.38690747 19.0495152,8.38205556 L19.0495152,8.38205556 L18.4527584,8.98138889 L15.3781639,12.0417778 L12.3744882,15.0358611 L9.29989358,11.9711667 L12.3035693,8.97794444 L15.9792449,5.31822222 C17.7648689,3.5374931 20.3849061,2.87029835 22.8099476,3.57877778 C23.0963565,1.52848012 24.8562963,0.00173722306 26.935353,2.59348099e-13 Z" id="Combined-Shape"></path>
            </g>
        </g>
    </g>
</svg>