<?xml version="1.0" encoding="UTF-8"?>
<svg width="32px" height="31px" viewBox="0 0 32 31" version="1.1" xmlns="http://www.w3.org/2000/svg" xmlns:xlink="http://www.w3.org/1999/xlink">
    <!-- Generator: Sketch 51.3 (57544) - http://www.bohemiancoding.com/sketch -->
    <title>ic-technology-photoshop</title>
    <desc>Created with Sketch.</desc>
    <defs></defs>
    <g id="Page-1" stroke="none" stroke-width="1" fill="none" fill-rule="evenodd">
        <g id="ic-technology-photoshop" fill="#252B33" fill-rule="nonzero">
            <path d="M32,0 L32,31 L0,31 L0,0 L32,0 Z M22.08,10.2847447 C19.5346667,10.2847447 18.0653333,11.8347447 18.0653333,13.7039787 C18.0653333,15.3694043 18.9233333,16.3693191 20.9893333,17.3540638 C22.458,18.1072979 22.7926667,18.5716383 22.7926667,19.0927021 C22.7926667,19.7443617 22.3126667,20.2225532 21.1633333,20.2225532 C20.125915,20.2227902 19.1106076,19.9259053 18.24,19.3677447 C18.1386667,19.2951915 18.0653333,19.3387234 18.0653333,19.4838298 L18.0653333,21.6129362 C18.0653333,21.7290213 18.08,21.8015745 18.182,21.8451064 C18.8073333,22.2072128 19.898,22.4677447 21.1633333,22.4677447 C23.5633333,22.4677447 25.338,21.2218085 25.338,18.9040638 C25.338,17.3540638 24.6253333,16.296766 22.342,15.1959362 C20.8,14.3991702 20.538,14.0364043 20.538,13.5153404 C20.538,13.0371489 20.9306667,12.4580426 22.08,12.4580426 C23.0253333,12.4580426 23.9706667,12.7040638 24.6106667,13.1097021 C24.756,13.153234 24.8293333,13.0806809 24.8293333,12.9645957 L24.8293333,10.9805957 C24.8293333,10.8790213 24.8,10.7629362 24.6833333,10.690383 C24.2033333,10.473383 23.3306667,10.2847447 22.08,10.2847447 Z M11.0546667,6.24353191 C9.61466667,6.24353191 8.23266667,6.27255319 7.302,6.31608511 C7.18533333,6.31608511 6.982,6.3886383 6.982,6.49021277 L6.982,22.0475957 C6.982,22.1781915 7.04,22.2217234 7.15666667,22.2217234 L9.382,22.2217234 C9.51266667,22.2217234 9.55666667,22.1636809 9.55666667,22.0475957 L9.55666667,16.4847447 C9.94933333,16.4847447 10.138,16.513766 10.6906667,16.513766 C13.978,16.513766 16.6546667,14.9347447 16.6546667,11.2556383 C16.6546667,8.44519149 15.0833333,6.24353191 11.0546667,6.24353191 Z M10.9673333,8.54676596 C12.902,8.54676596 14.0506667,9.47346809 14.0506667,11.3136809 C14.0506667,13.6169149 12.4506667,14.2105319 10.7493333,14.2105319 C10.1673333,14.2105319 9.90533333,14.2105319 9.57066667,14.1815106 L9.57066667,8.59029787 C9.83266667,8.57578723 10.3853333,8.54676596 10.9673333,8.54676596 Z" id="Combined-Shape-Copy-10"></path>
        </g>
    </g>
</svg>