<?xml version="1.0" encoding="UTF-8"?>
<svg width="29px" height="32px" viewBox="0 0 29 32" version="1.1" xmlns="http://www.w3.org/2000/svg" xmlns:xlink="http://www.w3.org/1999/xlink">
    <!-- Generator: Sketch 51.3 (57544) - http://www.bohemiancoding.com/sketch -->
    <title>ic-technology-phone-gap</title>
    <desc>Created with Sketch.</desc>
    <defs></defs>
    <g id="Page-1" stroke="none" stroke-width="1" fill="none" fill-rule="evenodd">
        <g id="ic-technology-phone-gap" fill="#252B33" fill-rule="nonzero">
            <path d="M11.4990169,2.82118886 C11.4915779,2.67600697 11.3734137,-0.367990376 14.5699617,0.0370825511 C17.8434181,0.449901872 25.315645,1.58702176 25.315645,1.58702176 C25.315645,1.58702176 27.471542,2.10651274 27.5655522,4.58342867 L27.5609176,4.44461767 C27.5642836,4.5322408 27.5677925,4.62370957 27.571242,4.71374565 L27.572,4.754 C27.6124823,5.79599825 27.5961176,5.3635736 27.5746642,4.80310866 L27.573,4.759 L27.5752103,4.80803081 C27.73149,8.18418163 28.9688959,26.5444632 28.9994253,26.9972889 C29,27.0058115 28.8985957,29.5872655 26.8514972,30.0011516 L15.5935111,31.9671103 C15.5935111,31.9671103 12.4077271,32.5218029 12.3200546,29.0752416 C12.2429451,26.1823062 11.4993139,2.82654644 11.4993139,2.82654644 L11.4990169,2.82118886 Z M5.05486151,5.34613103 C5.05486151,5.34613103 4.87529147,2.79987852 7.72728643,3.12629381 C8.51950726,3.21803143 9.59058981,3.33110338 10.7271626,3.44310863 C10.7525137,4.24101264 10.8021595,5.78988514 10.8644809,7.75371038 C10.0342335,7.68650723 9.27158888,7.62357094 8.71703431,7.58516914 C6.55902479,7.4336954 6.70479342,9.32605063 6.70479342,9.32605063 C6.70479342,9.32605063 6.9160523,19.562263 6.94879744,21.3682143 C6.99421809,23.815262 9.0973003,23.5101811 9.0973003,23.5101811 L11.3524889,23.2904376 C11.4200918,25.4452051 11.4739629,27.2383556 11.5056516,28.3061389 L8.31247354,28.7189583 C8.31247354,28.7189583 5.53758806,29.1595122 5.46047857,26.4169839 C5.39393203,24.1224765 5.05486151,5.34613103 5.05486151,5.34613103 Z M16.0012407,5.73121572 C13.4925415,5.54134016 13.6604923,7.85611516 13.6604923,7.85611516 L13.6608774,7.86619117 C13.6762004,8.26720096 14.1438768,20.5157677 14.183358,22.6834757 C14.2382853,25.6745491 16.6762129,25.2990649 16.6762129,25.2990649 L25.0473462,24.4232905 C27.3817569,24.0190049 27.1969054,22.1437172 27.1969054,22.1437172 C27.1969054,22.1437172 26.4881318,10.7341165 26.4110223,8.67962038 C26.3447195,6.93480025 24.9400605,6.46428355 24.7243514,6.40222075 L24.6966565,6.39471343 C24.6966565,6.39471343 18.5616984,5.9232247 16.0012407,5.73121572 Z M0.00120401308,8.33242155 C-0.0046127656,8.2207023 -0.0577091653,6.54871175 1.99160766,6.77659798 C2.58207625,6.83953426 3.4080985,6.91207097 4.29116064,6.97927413 C4.30594876,7.77504471 4.32496206,8.82042697 4.34714424,10.0162163 C3.7101987,9.97781447 3.13346194,9.94047939 2.72678859,9.91381147 C1.12227734,9.80500637 1.23001938,11.1394688 1.23001938,11.1394688 C1.23001938,11.1394688 1.38635095,18.350473 1.41170202,19.6209324 C1.44761603,21.3447465 3.0077629,21.1314031 3.0077629,21.1314031 L4.55417794,21.0204645 C4.57952902,22.3847951 4.60488008,23.6072523 4.62389338,24.5662306 L2.42363208,24.8041085 C2.42363208,24.8041085 0.362801651,25.1177231 0.30470545,23.1848327 C0.25717221,21.5634233 0.00154895189,8.33827106 0.00154895189,8.33827106 L0.00120401308,8.33242155 Z M16.201,6.547 L16.2247761,6.54910725 C16.2351321,6.54985904 16.2443104,6.55052762 16.2519308,6.55108547 L16.266,6.552 L16.455084,6.56644628 C17.0979828,6.61375729 17.8823891,6.67350835 18.7075811,6.7380159 L19.0634382,6.76593081 C19.1764618,9.38792019 19.6771454,20.5553762 19.8387584,24.1662119 C18.265936,24.3304862 15.1910628,25.3438669 14.9893105,22.9426879 L16.5103746,22.795481 C18.5194466,22.4637323 18.3610025,20.9265936 18.3610025,20.9265936 C18.3610025,20.9265936 17.9564417,11.7858991 17.8909515,10.103687 C17.8265175,8.55694797 16.4131956,8.23586627 16.4131956,8.23586627 C16.4131956,8.23586627 15.5924547,8.16226283 14.4611634,8.06305819 C14.4432064,7.63850497 14.4484879,7.16914967 14.761151,6.83846754 C15.0569135,6.52378615 15.5417527,6.49711823 15.941032,6.52911973 L16.0525338,6.53708115 C16.0853548,6.53942235 16.1139564,6.54146014 16.1387187,6.54322204 L16.199,6.547 L16.201,6.547 Z M7.70616054,8.61881754 C8.25120847,8.03745699 9.9507862,8.48441124 10.6278709,8.53988051 C10.6701227,8.67748694 10.6975864,8.83109412 10.7049804,8.99963534 L10.704,8.993 C10.7053316,9.00665304 10.7056517,9.01375551 10.7060329,9.02223019 L10.707,9.051 L10.705,9.022 L10.7730784,10.8543555 C10.8097186,12.0914134 10.8314387,13.3294046 10.8538189,14.5669959 L10.889832,16.4229161 C10.9341963,18.4336769 11.1253856,20.5041739 11.0176435,22.5138678 C9.76593468,22.6365403 7.7705945,23.243502 7.73784937,21.3490134 C7.73573678,21.2082068 7.73151161,21.0183312 7.72728643,20.7825868 L8.5100006,20.7239173 C10.0014883,20.4945732 9.88318336,19.4107894 9.88318336,19.4107894 L9.88302687,17.6441881 C9.8813055,15.5875585 9.87332461,12.3708153 9.84093158,11.5800228 C9.79551092,10.4919719 8.74449795,10.2647612 8.74449795,10.2647612 C8.74449795,10.2647612 8.24064552,10.2359599 7.51180236,10.1943579 C7.503352,9.75593742 7.36075226,8.98470131 7.70616054,8.61881754 Z" id="Combined-Shape-Copy-6"></path>
        </g>
    </g>
</svg>