<?xml version="1.0" encoding="UTF-8"?>
<svg width="32px" height="29px" viewBox="0 0 32 29" version="1.1" xmlns="http://www.w3.org/2000/svg" xmlns:xlink="http://www.w3.org/1999/xlink">
    <!-- Generator: Sketch 61.2 (89653) - https://sketch.com -->
    <title>ic-technology-react-native</title>
    <desc>Created with Sketch.</desc>
    <g id="Page-1" stroke="none" stroke-width="1" fill="none" fill-rule="evenodd">
        <g id="Brand-Logo" transform="translate(-811.000000, -4880.000000)" fill="#252B33" fill-rule="nonzero">
            <g id="ic-technology-react-native" transform="translate(811.000000, 4880.000000)">
                <path d="M16.8118208,2.80286637 C19.5690321,0.403393375 22.2991319,-0.600338733 23.968463,0.36228708 C25.7094055,1.36622962 26.219208,4.41552357 25.4394828,8.20039046 C25.392044,8.43089466 25.339169,8.6650686 25.2810015,8.90258929 C25.6348234,9.00505101 25.9784913,9.1134243 26.3105302,9.22773312 C29.766663,10.4175952 32,12.2811058 32,14.2081642 C32,16.2177973 29.6131938,18.182753 25.9447818,19.3981853 C25.7512476,19.4623053 25.5532965,19.5242705 25.3511573,19.584057 C25.4222669,19.8740209 25.4862816,20.1595685 25.5416624,20.439318 C26.2658016,24.097545 25.7080573,27.1041367 23.9916794,28.0977189 C22.3298826,29.0597549 19.6438089,28.1146872 16.9242932,25.7744166 C16.6372081,25.5273813 16.3486316,25.2640927 16.0595917,24.9857958 C15.8362048,25.2013956 15.6134564,25.4065253 15.3914681,25.6005611 C12.5838492,28.054867 9.70040665,29.0732296 7.98261514,28.0825654 C6.31906307,27.1239327 5.79636974,24.3244922 6.46569784,20.7993361 C6.53621926,20.4279207 6.62002802,20.0471272 6.71656185,19.6584595 C6.41895876,19.5722608 6.13014381,19.4818491 5.85129663,19.3865619 C2.32259798,18.180448 0,16.1913754 0,14.2081642 C0,12.2880271 2.16358815,10.4369464 5.55144666,9.25577496 C5.93044264,9.12364058 6.32607002,8.99920209 6.73643514,8.88277602 C6.64648267,8.52327017 6.56758468,8.16970471 6.49974075,7.82328326 C5.79786632,4.23608722 6.2917244,1.36950416 7.95949954,0.404108721 C9.69873548,-0.602787116 12.5951637,0.478407586 15.4848686,3.04425639 C15.6614033,3.20099919 15.8384037,3.36431389 16.0156596,3.53391202 L16.2290975,3.32993035 L16.2290975,3.32993035 L16.5868421,3.00163945 Z M24.0276227,19.9304892 L23.6702865,20.0108251 C22.4413577,20.2765578 21.1031796,20.4739599 19.6942513,20.5989793 C18.8138784,21.8725853 17.9129562,23.0185303 17.0116215,24.0043973 C17.2811054,24.2641575 17.54947,24.508937 17.8159462,24.7382385 C20.1417023,26.7396604 22.2983507,27.4984552 23.3068026,26.9146492 C24.3695762,26.2994275 24.8236266,23.8518111 24.2006767,20.7047754 C24.1506741,20.4521931 24.0929179,20.1939486 24.0276227,19.9304892 Z M8.04277268,19.99239 L7.96678274,20.3062146 L7.96678274,20.3062146 L7.86406933,20.7748672 L7.8087112,21.0543367 C7.23631985,24.0689553 7.65598659,26.316606 8.66534785,26.8982571 C9.7291123,27.5117385 12.0764875,26.6827021 14.4918002,24.5713342 C14.6943875,24.3942565 14.8981029,24.2067521 15.1026271,24.0092875 C14.1676291,23.0082536 13.2401394,21.8627022 12.3545087,20.6165802 C10.8035837,20.4906722 9.35334227,20.2820711 8.04277268,19.99239 Z M17.9309233,20.7169652 L17.7588663,20.7231657 C17.1802188,20.7465784 16.5932242,20.7584097 16.0002563,20.7584097 C15.3654669,20.7584097 14.7406735,20.7463362 14.1280376,20.7222891 C14.7594406,21.5545355 15.4058762,22.3280811 16.0538442,23.0271722 C16.6790918,22.3376191 17.3080181,21.5633317 17.9309233,20.7169652 Z M16.0002563,9.08188505 C15.0140293,9.08188505 14.0379397,9.11909901 13.0863056,9.19096389 C12.549026,9.97759041 12.0290292,10.8044484 11.5347646,11.661487 L11.5347646,11.661487 L11.349271,11.9856466 C10.9271137,12.734272 10.5339021,13.4890699 10.1729328,14.2409019 C10.5865648,15.0995172 11.0432846,15.9630723 11.5389761,16.8191812 C12.0359918,17.6776629 12.5604658,18.5084265 13.1028337,19.300157 C14.0352866,19.3607685 15.0043923,19.391402 16.0002563,19.391402 C17.0001583,19.391402 17.9813525,19.3566374 18.9310316,19.2886978 C19.4517881,18.5076635 19.9653237,17.6791748 20.4655728,16.8117505 C20.9654981,15.9448711 21.4258713,15.0769638 21.8416673,14.2199039 C21.4242999,13.3791889 20.9630054,12.5205549 20.4613581,11.6540358 C19.9652123,10.7970131 19.4487728,9.97297791 18.9195985,9.19191111 C17.9684376,9.11936912 16.9910015,9.08188505 16.0002563,9.08188505 Z M9.44829865,15.8483221 L9.27447681,16.2682855 C8.94166482,17.08835 8.65223387,17.8945756 8.41068932,18.6744732 C9.32390987,18.8723735 10.3119876,19.0307342 11.3597407,19.1476267 C11.0155495,18.6125946 10.6800332,18.0639134 10.3559465,17.5041273 C10.0377126,16.9545055 9.73481437,16.4016172 9.44829865,15.8483221 Z M22.5786059,15.7996948 L22.4981093,15.953116 C22.2292286,16.4662112 21.9461254,16.9807905 21.6497692,17.4946775 C21.3277819,18.0529985 21.0001715,18.5961644 20.6681582,19.1222679 C21.7242523,18.9964171 22.7259904,18.8259402 23.6537508,18.614246 C23.3664712,17.7169764 23.0060788,16.7740921 22.5786059,15.7996948 Z M7.10329512,10.20016 L6.82864988,10.2795977 C6.54419029,10.3645475 6.26820723,10.4535884 6.0014807,10.5465807 C3.10416394,11.5567256 1.36700777,13.0429679 1.36700777,14.2081642 C1.36700777,15.4361678 3.25780821,17.0554491 6.29338021,18.0930116 C6.54727518,18.1797722 6.81070115,18.2623277 7.08309943,18.3406349 C7.48739839,17.023101 8.02031495,15.6392229 8.66237668,14.2414697 C8.02886629,12.8646392 7.50371997,11.5027819 7.10329512,10.20016 Z M24.9143034,10.2198516 L24.8343681,10.4762114 C24.450663,11.6736737 23.9529989,12.931804 23.3571101,14.2152794 C24.0264135,15.6239503 24.5723735,16.9865642 24.9772429,18.2681553 L25.109703,18.2292887 L25.109703,18.2292887 L25.514851,18.1005452 C28.6822524,17.0511097 30.6329922,15.4451488 30.6329922,14.2081642 C30.6329922,13.0468958 28.8267557,11.5397606 25.8655432,10.5202875 C25.5592298,10.414835 25.2418182,10.3146275 24.9143034,10.2198516 Z M16.0001994,11.3507192 C17.5783226,11.3507192 18.8576443,12.6300409 18.8576443,14.2081642 C18.8576443,15.7862874 17.5783226,17.0656091 16.0001994,17.0656091 C14.4220761,17.0656091 13.1427544,15.7862874 13.1427544,14.2081642 C13.1427544,12.6300409 14.4220761,11.3507192 16.0001994,11.3507192 Z M20.6723047,9.3688722 L20.7327828,9.46475774 C21.0429646,9.95382706 21.3473105,10.4559301 21.6444165,10.9691395 C21.967778,11.5276972 22.2751605,12.0835691 22.5655156,12.6347336 C22.9702399,11.6863447 23.314184,10.7617829 23.5899845,9.87763303 C22.670785,9.6688676 21.6926846,9.49792006 20.6723047,9.3688722 Z M11.330973,9.36669264 L11.1127291,9.39403604 C10.1768475,9.51694362 9.27752406,9.67458953 8.43033481,9.86418556 C8.70852242,10.7611951 9.04931278,11.6892484 9.44694252,12.6325868 C9.73261986,12.0788599 10.03393,11.5266395 10.3498984,10.9785783 L10.3498984,10.9785783 L10.5683485,10.5996669 L10.5717115,10.5996984 L10.7388022,10.3197865 C10.9329012,9.99742519 11.130429,9.67956268 11.330973,9.36669264 Z M23.2197451,1.51136924 C22.185586,1.0015218 20.0213417,1.82193971 17.7092236,3.83406876 C17.4647887,4.0467869 17.2193522,4.27174667 16.9735731,4.50817918 C17.8877529,5.4936568 18.7990995,6.63225237 19.6784504,7.88443987 C21.1878105,8.02614318 22.6288218,8.25402484 23.9558166,8.56012853 L24.009802,8.33984106 L24.009802,8.33984106 L24.1005642,7.92469656 C24.7738209,4.65663861 24.3571596,2.16445243 23.2855724,1.5465044 L23.2855724,1.5465044 Z M14.4246394,3.93248654 C11.9861093,1.81560592 9.69310228,0.980039565 8.64437019,1.58718202 C7.63935804,2.16893559 7.23994765,4.48730015 7.84128698,7.56067344 C7.90434046,7.8826341 7.97772851,8.21172878 8.06110172,8.54696512 C9.3854843,8.24617678 10.82608,8.02210153 12.3309138,7.8826502 C13.2086179,6.64413571 14.1275974,5.50732355 15.0574057,4.50889064 C14.8968108,4.3556321 14.7367092,4.2080605 14.5772388,4.06646895 L14.5772388,4.06646895 Z M16.0145882,5.48485433 L15.6851104,5.84906267 C15.1563177,6.44094802 14.6312957,7.08003128 14.116673,7.75857809 C14.7381738,7.72967344 15.3673507,7.71487729 16.0002563,7.71487729 C16.639058,7.71487729 17.2728734,7.7299259 17.8986637,7.75949199 C17.2770693,6.93118765 16.6453535,6.16815839 16.0145882,5.48485433 Z" id="Combined-Shape-Copy-22"></path>
            </g>
        </g>
    </g>
</svg>