<?xml version="1.0" encoding="UTF-8"?>
<svg width="26px" height="32px" viewBox="0 0 26 32" version="1.1" xmlns="http://www.w3.org/2000/svg" xmlns:xlink="http://www.w3.org/1999/xlink">
    <!-- Generator: Sketch 51.3 (57544) - http://www.bohemiancoding.com/sketch -->
    <title>ic-technology-ios</title>
    <desc>Created with Sketch.</desc>
    <defs></defs>
    <g id="Page-1" stroke="none" stroke-width="1" fill="none" fill-rule="evenodd">
        <g id="ic-technology-ios" fill="#252B33" fill-rule="nonzero">
            <path d="M21.7144066,17.0005939 C21.7592787,21.8432624 25.9535315,23.4547617 26,23.4752747 C25.9645357,23.5888676 25.3298272,25.7717596 23.7902659,28.0265329 C22.4593281,29.9759538 21.0781017,31.9181181 18.9021784,31.9583441 C16.7641141,31.9978274 16.0766083,30.687795 13.632194,30.687795 C11.1885208,30.687795 10.4246699,31.9181752 8.40075271,31.9978845 C6.30043336,32.0775938 4.70100457,29.8899592 3.35911962,27.9476807 C0.617021779,23.9747863 -1.47850818,16.7212399 1.3352595,11.8249747 C2.7330777,9.39346965 5.23108761,7.85373738 7.94245353,7.81425414 C10.0049139,7.77482803 11.9515736,9.20479574 13.212438,9.20479574 C14.4725041,9.20479574 16.8381216,7.48513186 19.3250703,7.7376875 C20.3661928,7.78111335 23.2886911,8.15914685 25.1652204,10.911889 C25.0140125,11.005826 21.6781441,12.95199 21.7144066,17.0005939 M17.6961639,5.10928045 C18.811237,3.7566222 19.5617461,1.87359711 19.3569996,0 C17.7497025,0.0647388082 15.8061217,1.07336144 14.6532467,2.42527689 C13.6200494,3.62245916 12.7151965,5.53862503 12.9593414,7.37513874 C14.750859,7.51404434 16.5810339,6.4627958 17.6961639,5.10928045" id="Shape"></path>
        </g>
    </g>
</svg>